<svg width="32" height="32" viewBox="0 0 32 32" fill="none" xmlns="http://www.w3.org/2000/svg">
<g clip-path="url(#clip0_235_6)">
<path d="M16 0C7.16418 0 0 7.16418 0 16C0 24.8358 7.16418 32 16 32C24.8358 32 32 24.8358 32 16C32 7.16418 24.8358 0 16 0ZM10.9277 9.02148H11.0078C10.9923 9.02148 10.983 9.02799 10.9688 9.0293C11.5921 9.05073 12.0566 9.51965 12.0566 10.1504C12.0566 10.7959 11.5732 11.2793 10.9277 11.2793H10.8477C10.6056 11.2793 10.3633 11.5216 10.3633 11.7637C10.3633 12.0057 10.6056 12.248 10.8477 12.248H10.9277C11.5732 12.248 12.0566 12.7315 12.0566 13.377C12.0566 14.0224 11.5732 14.5078 10.9277 14.5078C10.7664 14.5078 10.6055 14.3469 10.6055 14.1855C10.6055 14.0242 10.7664 13.8613 10.9277 13.8613C11.1698 13.8613 11.4121 13.619 11.4121 13.377C11.4121 13.1349 11.2499 12.8945 11.0078 12.8945C10.3623 12.8945 9.87891 12.4091 9.87891 11.7637C9.87891 11.1989 10.3623 10.6348 11.0078 10.6348H11.0898C11.3319 10.6348 11.5723 10.3924 11.5723 10.1504C11.5723 9.90834 11.3319 9.66602 11.0898 9.66602C10.9285 9.7467 10.6855 9.5852 10.6855 9.42383C10.6855 9.19731 10.7613 9.04837 10.9688 9.0293C10.9542 9.0288 10.9425 9.02148 10.9277 9.02148ZM14.0742 9.02148C14.0742 9.02148 14.1556 9.02088 14.2363 9.10156C14.8818 9.10156 15.3652 9.585 15.3652 10.2305C15.3652 10.8759 14.8818 11.3613 14.2363 11.3613H14.1543H14.0742C13.8322 11.3613 13.5898 11.6037 13.5898 11.8457C13.5898 12.0878 13.8322 12.3281 14.0742 12.3281H14.1543C14.7998 12.3281 15.2852 12.8135 15.2852 13.459C15.2852 14.1045 14.7998 14.5879 14.1543 14.5879C13.9929 14.5879 13.832 14.427 13.832 14.2656C13.832 14.1043 13.9929 13.9434 14.1543 13.9434C14.3963 13.9434 14.6387 13.701 14.6387 13.459C14.6387 13.2169 14.3963 12.9746 14.1543 12.9746C13.5088 12.9746 13.0254 12.4912 13.0254 11.8457C13.0254 11.2809 13.5895 10.7148 14.1543 10.7148H14.2363H14.3164C14.5585 10.7148 14.7207 10.4725 14.7207 10.2305C14.7207 9.98842 14.4784 9.74609 14.2363 9.74609C13.9943 9.74609 13.832 9.5852 13.832 9.42383C13.7513 9.26246 13.9129 9.02148 14.0742 9.02148ZM17.3008 9.02148C17.3008 9.02148 17.3822 9.02088 17.4629 9.10156C18.1084 9.10156 18.5918 9.585 18.5918 10.2305C18.5918 10.8759 18.1084 11.3613 17.4629 11.3613H17.3828H17.3008C17.0587 11.3613 16.8184 11.6037 16.8184 11.8457C16.8184 12.0878 17.0587 12.3281 17.3008 12.3281H17.3828C18.0283 12.3281 18.5117 12.8135 18.5117 13.459C18.5117 14.1045 18.0283 14.5879 17.3828 14.5879C17.2214 14.5879 17.0605 14.427 17.0605 14.2656C17.0605 14.1043 17.2214 13.9434 17.3828 13.9434C17.6249 13.9434 17.8672 13.701 17.8672 13.459C17.8672 13.2169 17.6249 12.9746 17.3828 12.9746C16.7373 12.9746 16.252 12.4912 16.252 11.8457C16.252 11.2809 16.818 10.7148 17.3828 10.7148H17.4629C17.7049 10.7148 17.9473 10.4725 17.9473 10.2305C17.9473 9.98842 17.7049 9.74609 17.4629 9.74609C17.2208 9.74609 17.0605 9.5852 17.0605 9.42383C16.9799 9.26246 17.1394 9.02148 17.3008 9.02148ZM23.7559 9.58594C24.3206 9.58594 24.7247 9.98855 24.9668 10.4727C25.2088 10.9568 25.3691 11.5218 25.3691 12.0059C25.3691 12.8934 24.8062 13.6199 24.0801 13.7812C24.8062 16.0404 24.5632 18.1385 24.7246 20.2363V20.3164C24.7246 20.9619 24.24 21.3652 23.7559 21.3652C23.2718 21.3652 22.7891 20.9619 22.7891 20.3164V20.2363C22.9504 18.1385 22.7881 15.7984 23.4336 13.7812C22.7074 13.6199 22.1426 12.8934 22.1426 12.0059C22.1426 11.5218 22.3048 10.9568 22.5469 10.4727C22.7889 9.98855 23.1911 9.58594 23.7559 9.58594ZM6.89258 15.3145H21.7402C21.9823 15.3145 22.1432 15.5554 22.0625 15.7168C21.417 18.1373 19.7228 19.9947 17.625 20.9629V22.6562C17.625 22.8176 17.4621 22.9785 17.3008 22.9785H11.4922C11.3308 22.9785 11.1699 22.8176 11.1699 22.6562V21.043V20.9629C8.91077 19.9947 7.29782 18.0566 6.65234 15.7168C6.57166 15.5554 6.73121 15.3145 6.89258 15.3145Z" fill="black"/>
</g>
<defs>
<clipPath id="clip0_235_6">
<rect width="32" height="32" fill="white"/>
</clipPath>
</defs>
</svg>
