<svg width="32" height="32" viewBox="0 0 32 32" fill="none" xmlns="http://www.w3.org/2000/svg">
<g opacity="0.98">
<path opacity="0.98" d="M32 16C32 24.8358 24.8358 32 16 32C7.16418 32 0 24.8358 0 16C0 7.16418 7.16418 0 16 0C24.8358 0 32 7.16418 32 16Z" fill="#F37A5D"/>
<path opacity="0.98" d="M12.3374 8.24805C12.1707 8.24805 12.004 8.41475 12.004 8.66481C12.004 8.83151 12.1707 8.99821 12.3374 8.99821C12.5874 8.99821 12.8375 9.24827 12.8375 9.49833C12.8375 9.74838 12.5874 9.99844 12.3374 9.99844H12.254C11.5872 9.99844 11.0871 10.4986 11.0871 11.1654C11.0871 11.8322 11.5872 12.3323 12.254 12.3323C12.5041 12.3323 12.7541 12.5823 12.7541 12.8324C12.7541 13.0825 12.5041 13.3325 12.254 13.3325C12.0873 13.3325 11.9206 13.4992 11.9206 13.6659C11.9206 13.8326 12.0873 13.9993 12.254 13.9993C12.9208 13.9993 13.4209 13.4992 13.4209 12.8324C13.4209 12.1656 12.9208 11.6655 12.254 11.6655H12.1707C11.9206 11.6655 11.6705 11.4154 11.6705 11.1654C11.6705 10.9153 11.8372 10.6653 12.0873 10.6653H12.1706C12.8375 10.6653 13.3376 10.1651 13.3376 9.49833C13.3376 8.83151 13.0042 8.24805 12.3374 8.24805H12.3374ZM15.4214 8.24805C15.2547 8.24805 15.088 8.41475 15.1713 8.66481C15.1713 8.83151 15.338 8.99821 15.5047 8.99821C15.7548 8.99821 16.0048 9.24827 16.0048 9.49833C16.0048 9.74838 15.7548 9.99844 15.5047 9.99844H15.4214C14.7546 9.99844 14.2545 10.4986 14.2545 11.1654C14.2545 11.8322 14.7546 12.3323 15.4214 12.3323C15.6714 12.3323 15.9215 12.5823 15.9215 12.8324C15.9215 13.0825 15.6714 13.3325 15.4214 13.3325C15.2547 13.3325 15.088 13.4992 15.088 13.6659C15.088 13.8326 15.2547 13.9993 15.4214 13.9993C16.0882 13.9993 16.5883 13.4992 16.5883 12.8324C16.5883 12.1656 16.0882 11.6655 15.4214 11.6655H15.338C15.088 11.6655 14.8379 11.4154 14.8379 11.1654C14.8379 10.9153 15.0046 10.6653 15.338 10.6653H15.4214C16.0882 10.6653 16.5883 10.1651 16.5883 9.49833C16.5883 8.83151 16.1716 8.24805 15.4214 8.24805C15.5047 8.24805 15.4214 8.24805 15.4214 8.24805H15.4214ZM18.7555 8.24805C18.5888 8.24805 18.4221 8.41475 18.5054 8.66481C18.5054 8.83151 18.6721 8.99821 18.8388 8.99821C19.0889 8.99821 19.3389 9.24827 19.3389 9.49833C19.3389 9.74838 19.0889 9.99844 18.8388 9.99844H18.7555C18.0886 9.99844 17.5885 10.4986 17.5885 11.1654C17.5885 11.8322 18.0886 12.3323 18.7555 12.3323C19.0055 12.3323 19.2556 12.5823 19.2556 12.8324C19.2556 13.0825 19.0055 13.3325 18.7555 13.3325C18.5888 13.3325 18.4221 13.4992 18.4221 13.6659C18.4221 13.8326 18.5888 13.9993 18.7555 13.9993C19.4223 13.9993 19.9224 13.4992 19.9224 12.8324C19.9224 12.1656 19.4223 11.6655 18.7555 11.6655H18.6721C18.422 11.6655 18.172 11.4154 18.172 11.1654C18.172 10.9153 18.422 10.6653 18.6721 10.6653H18.7555H18.8388C19.5056 10.6653 20.0057 10.1651 20.0057 9.49833C20.0057 8.83151 19.5056 8.24805 18.7555 8.24805C18.8388 8.24805 18.8388 8.24805 18.7555 8.24805V8.24805ZM24.2567 9.83173C24.09 9.83173 23.9233 9.83173 23.8399 9.91509C23.1731 10.0818 22.3396 10.6653 21.7561 11.8322C21.0893 13.3325 20.4225 13.916 19.9224 14.2494C19.6723 14.3328 19.5056 14.4161 19.2556 14.4995C18.8388 14.5828 18.5054 14.5828 18.0053 14.5828H17.9219H8.08641H8.00306C7.83636 14.6662 7.75301 14.7495 7.75301 14.9162V16.2498V16.3332V16.4165C8.41982 18.7504 10.0869 20.7508 12.3374 21.6677V21.7511V23.4181C12.3374 23.5848 12.5041 23.7515 12.6708 23.7515H18.6721C18.8388 23.7515 19.0055 23.5848 19.0055 23.4181V21.6677C21.0893 20.7508 22.8397 18.8337 23.5065 16.4165C23.5065 16.3332 23.5899 16.3332 23.5899 16.2498V14.9162C23.5899 14.7495 23.4232 14.5828 23.2565 14.5828H21.1727C21.7561 14.2494 22.1729 13.8326 22.5063 13.4159C23.3398 12.4156 23.8399 11.4988 25.6737 11.3321H26.6739C26.8406 11.4154 27.0073 11.3321 27.0907 11.2487C27.174 11.082 27.0907 10.832 26.924 10.7486C26.4238 10.4152 25.3403 9.66503 24.2567 9.83173V9.83173ZM8.50317 15.2496H23.0898V15.9164H8.50317V15.2496V15.2496Z" fill="white"/>
</g>
</svg>
