<svg width="50" height="50" viewBox="0 0 50 50" fill="none" xmlns="http://www.w3.org/2000/svg">
<path d="M49.0013 24.4509C48.7235 25.4901 50.3427 31.279 41.9451 36.1352C32.6427 41.5782 17.4547 41.5782 8.0889 36.1352C-0.645603 31.0946 1.2245 24.9542 1.0644 24.3242C1.0644 27.8993 3.4375 31.5069 8.1521 34.2276C17.518 39.6382 32.7059 39.6382 42.0401 34.2276C46.6599 31.5377 48.9696 27.9935 49.0013 24.4509Z" fill="#CC8B4F"/>
<path d="M41.9009 14.592C51.2746 20.0039 51.324 28.7984 41.991 34.2222C32.6787 39.6339 17.4958 39.6341 8.122 34.2222C-1.2719 28.7986 -1.3213 20.0041 7.991 14.5924C17.3241 9.16859 32.507 9.16839 41.9009 14.592Z" fill="#E5AE70"/>
<path d="M48.0086 28.313C47.8863 28.5678 47.7437 28.8325 47.5806 29.0873C44.7392 27.2605 37.4137 23.7226 35.3822 22.8504C30.4548 20.5847 26.7069 21.4012 18.2208 11.0698C18.7915 10.9782 19.3724 10.8867 19.9533 10.8255C29.9161 20.7833 31.5015 19.1585 36.8395 21.7498C40.0299 23.2908 45.1078 26.0427 48.0086 28.313ZM48.9054 25.2757C47.9373 24.7662 46.959 24.2671 45.9603 23.7779C43.9731 22.83 42.0368 21.8009 40.0088 20.9346C38.1031 20.0583 35.6471 19.4468 33.4867 18.4377C29.8906 16.4793 26.8846 14.175 24.2437 10.8966C24.1418 10.7747 24.0501 10.6622 23.9583 10.5398C24.6819 10.5199 25.4156 10.5199 26.1493 10.5398C27.3416 11.7728 28.646 12.9656 30.1237 14.0966C36.1585 18.6484 37.3764 17.8337 41.4763 19.8444C43.5552 20.8431 45.4201 21.8622 47.2953 22.922C47.5093 23.0439 47.7335 23.1768 47.9475 23.2987C48.2736 23.4923 48.5997 23.6759 48.9258 23.8898C48.9665 24.3487 48.9665 24.8174 48.9054 25.2757ZM47.8965 20.3639C46.9794 19.9156 46.0622 19.4772 45.1246 19.0696C41.9067 17.5899 37.0541 17.1329 31.0816 10.9886C32.2638 11.1618 33.4255 11.3961 34.5567 11.6917C34.7809 11.8748 35.0051 12.0584 35.2395 12.2316C36.3911 13.1079 37.614 13.9946 38.949 14.7694C39.3668 15.0038 39.7948 15.2381 40.233 15.4521C41.884 16.2572 43.9833 16.8175 45.9195 17.6734C46.7552 18.5297 47.4074 19.4369 47.8965 20.3639Z" fill="#D89C60"/>
<path d="M45.2265 31.8799C44.9819 32.1138 44.717 32.3382 44.4418 32.5626C40.5337 30.0729 35.9388 30.6437 31.0715 27.3955C26.5429 24.6206 26.4417 21.7129 23.5813 20.0684C23.1023 19.7932 22.5622 19.5385 21.9508 19.3041C19.719 18.4582 16.9267 17.572 14.858 16.3797C13.3524 15.5711 11.8738 14.6753 10.16 13.4852C10.5269 13.3016 10.9039 13.1488 11.2912 12.9961C11.4542 13.0877 11.6173 13.1897 11.7803 13.2817C21.9376 19.1486 24.6137 16.6505 28.748 22.3922C32.3215 28.2149 40.3835 29.4485 43.0967 30.6364C43.8587 30.9662 44.5799 31.3944 45.2265 31.8799ZM30.6537 37.9023C30.1442 37.9735 29.6448 38.0352 29.1353 38.0755H29.1251C24.847 34.8518 26.571 33.8486 20.8196 31.1051C11.1455 26.2457 8.5606 25.6972 4.7283 19.4265C4.4328 18.9677 4.0455 18.5298 3.5971 18.1118C3.8722 17.7859 4.178 17.4798 4.504 17.1639C5.2887 17.7142 5.9715 18.3258 6.5014 18.9781C8.1076 20.8555 8.5439 22.5976 13.6656 25.5613C15.7316 26.7383 16.4184 27.0093 22.4093 30.0656C22.8068 30.2796 23.2042 30.4935 23.5915 30.718C28.5509 33.6166 26.6558 34.5289 30.6537 37.9023ZM25.2118 38.2795C24.4985 38.2795 23.7953 38.2691 23.082 38.2282C20.307 34.9491 16.6124 34.4559 9.8747 30.5751C2.7432 26.4446 3.6386 24.4517 1.3654 22.1065C1.4775 21.6582 1.6405 21.2203 1.8545 20.7819C2.68 21.3626 3.4035 21.9945 3.9538 22.6773C5.2504 24.1698 5.6041 25.2986 7.755 26.9984C10.5501 29.2749 14.6263 31.0986 19.8719 33.7647C22.4432 35.1854 23.6931 35.8859 25.0489 38.0042C25.0997 38.0959 25.1506 38.188 25.2118 38.2795ZM37.0229 36.4349C36.5745 36.5877 36.1159 36.7305 35.6471 36.8529C35.6471 36.8529 35.6471 36.8529 35.637 36.8529C25.5675 30.8251 28.7439 28.5923 21.8081 26.0301C16.2407 23.8127 11.971 23.5452 9.1409 18.275C8.5294 17.1947 7.9282 16.1348 7.0416 15.177C7.3473 14.9834 7.6632 14.7894 7.9893 14.5963C8.03 14.5754 8.0606 14.5555 8.1014 14.5346C9.3243 15.5845 10.1701 16.7768 10.9446 17.8775C14.387 22.5473 15.647 21.9631 23.2042 24.8071C25.0089 25.4989 26.0316 26.078 26.9238 26.6925C29.5946 28.5471 30.1367 31.6367 37.0229 36.4349Z" fill="#D89C60"/>
<path d="M26.7447 15.9182C26.7447 15.9182 27.1359 15.9965 26.9012 16.2899C26.6665 16.5833 25.9428 16.8375 25.6103 16.8375C23.6993 16.8375 17.4333 17.209 15.5375 18.0306C13.7772 18.7934 12.2516 18.6564 11.1954 18.9693C10.1392 19.2822 9.1613 19.3606 9.0244 18.7934C8.8875 18.2262 8.3007 16.7201 8.8679 16.2506C9.4351 15.7812 9.1613 15.7616 10.0806 15.7421C12.8464 15.6833 21.7013 15.453 22.657 15.522C23.5371 15.5857 26.7447 15.9182 26.7447 15.9182Z" fill="#E02426"/>
<path d="M9.2653 16.0233C9.2419 15.9627 9.1954 15.8878 9.1333 15.9068C9.1123 15.9132 9.0961 15.9299 9.0827 15.9473C9.0282 16.0177 9.0039 16.1061 8.9659 16.1866C8.9003 16.3254 8.7905 16.4428 8.6564 16.5176C8.6414 16.526 8.6244 16.5341 8.6076 16.5304C8.5816 16.5246 8.5697 16.4947 8.5482 16.479C8.5082 16.4498 8.4478 16.4817 8.4285 16.5273C8.4092 16.5729 8.4177 16.6247 8.4232 16.6739C8.4573 16.9758 8.3621 17.2902 8.1663 17.5225C8.0801 17.6248 8.1267 17.6485 8.2267 17.6999C8.3974 17.7876 8.3847 18.0341 8.4012 18.1685C8.4643 18.6848 8.8374 18.8133 8.8907 19.0556C8.9045 19.1185 8.8933 19.2823 8.9484 19.315C9.021 19.3581 9.0431 19.2565 9.0669 19.1909C9.114 19.0612 9.2611 19.0047 9.3848 18.9435C9.5085 18.8823 9.6384 18.7642 9.6029 18.6309C9.6835 18.6169 9.7671 18.7189 9.8354 18.6737C9.8713 18.6499 9.8747 18.5963 9.857 18.5571C9.8393 18.5179 9.8062 18.4882 9.7783 18.4554C9.6183 18.2668 9.6387 17.9896 9.668 17.7441C9.6844 17.6063 9.7008 17.4686 9.7172 17.3308C9.7306 17.2188 9.7448 17.1037 9.7984 17.0044C9.8224 16.96 9.8696 16.903 9.8704 16.8506C9.8718 16.7666 9.8636 16.7903 9.7981 16.7747C9.6932 16.7497 9.6761 16.7772 9.6028 16.6738C9.5596 16.6126 9.2839 16.0233 9.2653 16.0233Z" fill="#589441"/>
<path d="M4.8436 18.4658C4.8932 18.4862 4.7841 18.6945 4.8436 18.6746C5.3795 18.4658 5.9352 18.3272 6.4909 18.1881C7.3221 17.9818 8.5641 18.1396 8.4459 18.3766C8.5054 18.4066 8.5749 18.4464 8.6443 18.4265C8.7336 18.4066 8.7733 18.2971 8.7932 18.208C8.823 18.1087 8.8428 18.0093 8.8428 17.9105C8.8527 17.8407 8.8527 17.7613 8.8825 17.7021C8.9023 17.6624 8.9321 17.6323 8.9519 17.5926C9.0214 17.4637 8.9916 17.2951 8.9618 17.1463C8.9519 17.1066 8.942 17.0567 8.9122 17.0271C8.8825 17.0072 8.8527 16.9975 8.8229 16.9975C8.7931 16.9873 8.7534 16.9771 8.7137 16.9675C8.6145 16.9379 8.4954 16.9079 8.4061 16.9278C8.297 16.9477 8.1779 17.0567 8.0885 17.1163C7.9794 17.1759 7.8801 17.2457 7.7709 17.2951C7.2946 17.5035 6.7289 17.424 6.2427 17.6028C6.0641 17.6721 5.8954 17.7714 5.7068 17.831C5.548 17.8804 4.9923 17.9899 4.8335 18.0195C4.6747 18.0491 4.903 18.0093 4.774 18.1087L4.7642 18.1188C4.6352 18.2278 4.5558 18.3766 4.5757 18.5355C4.5856 18.6049 4.7741 18.4464 4.8436 18.4658Z" fill="#80BC41"/>
<path d="M4.7642 18.1188C4.7741 18.1387 4.7741 18.1484 4.7841 18.1585C4.8039 18.1784 4.8536 18.1784 4.8833 18.1784C5.1513 18.1585 5.4093 18.1188 5.6772 18.0791C5.7765 18.0689 5.8757 18.0592 5.9749 18.0195C6.0344 17.9996 6.0841 17.9599 6.1436 17.9502C6.2627 17.9303 6.3818 17.9798 6.5008 17.9502C6.6099 17.9303 6.6894 17.8208 6.7985 17.801C6.8878 17.7816 6.9871 17.8209 7.0764 17.7913C7.1557 17.7613 7.2153 17.6823 7.3046 17.6425C7.4137 17.6028 7.5328 17.6522 7.6519 17.6226C7.7611 17.6027 7.8405 17.5034 7.9397 17.4637C8.0389 17.424 8.1382 17.424 8.2374 17.3842C8.3465 17.3348 8.416 17.2156 8.4954 17.1264C8.545 17.0765 8.674 17.0271 8.7137 16.9675C8.6145 16.9379 8.4954 16.9079 8.4061 16.9278C8.297 16.9477 8.1779 17.0567 8.0885 17.1163C7.9794 17.1759 7.8801 17.2457 7.7709 17.2951C7.2946 17.5035 6.7289 17.424 6.2427 17.6028C6.0641 17.6721 5.8954 17.7714 5.7068 17.831C5.548 17.8804 4.9923 17.9899 4.8335 18.0195C4.6747 18.0491 4.903 18.0093 4.774 18.1087L4.7642 18.1188Z" fill="#73AE43"/>
<path d="M4.8099 17.999C4.7312 18.0111 4.6579 18.0574 4.5983 18.1201C4.5704 18.1495 4.5446 18.1836 4.5308 18.2249C4.5194 18.259 4.5168 18.2964 4.5162 18.3331C4.5155 18.3774 4.5178 18.4221 4.5284 18.4646C4.5591 18.5878 4.6616 18.6761 4.7688 18.6852C4.876 18.6943 4.9829 18.6303 5.0508 18.5307C5.098 18.4615 5.1282 18.3735 5.1257 18.2843C5.1201 18.092 4.9596 17.9759 4.8099 17.999Z" fill="#A9C838"/>
<path d="M8.6902 20.9982C8.5739 20.9177 8.6274 20.7173 8.7426 20.6352C8.8578 20.5532 9.009 20.5486 9.1504 20.5455C11.7177 20.4886 14.2715 19.8839 16.5917 18.7835C21.0721 16.6585 20.8595 12.2082 22.9082 13.4334C24.4407 14.3499 24.4554 14.3003 24.5405 14.5898C25.0376 16.2788 21.1359 19.4338 19.5157 20.178C16.8523 21.4013 15.3348 22.1601 13.0275 22.0052C10.7202 21.8503 9.8745 21.8184 8.6902 20.9982Z" fill="#73AE43"/>
<path d="M24.25 13.9235C24.25 13.8237 23.5214 13.3947 23.3966 13.3479C23.3483 13.3286 22.9897 13.2706 22.9897 13.219C22.9611 12.9327 23.6107 13.0103 23.1782 12.0677C22.5398 10.7529 22.172 11.1446 21.8187 10.6189C21.9475 10.5969 22.0911 10.7664 22.2752 10.6189H22.2851C22.5216 10.4611 22.4757 10.1982 22.5133 9.9541C22.6522 10.2419 22.9797 10.5297 23.2278 10.7381C23.5057 10.976 23.6942 11.3036 23.8233 11.651C23.9424 11.9979 24.0019 12.3652 24.0615 12.7325C24.1111 13.1293 24.2897 13.5262 24.25 13.9235Z" fill="#80BC41"/>
<path d="M23.089 13.2681C23.0295 13.2584 22.9897 13.2381 22.9897 13.2187C22.9611 12.9324 23.6107 13.01 23.1782 12.0674C22.6026 10.8818 22.2617 11.1155 21.8881 10.6981C21.9178 10.6782 21.9576 10.6681 21.9972 10.6584C22.0965 10.6284 22.2155 10.6187 22.2652 10.6187H22.2851C22.4042 10.6386 22.5233 10.7079 22.6225 10.797C23.2923 11.3377 23.8201 12.9517 23.089 13.2681Z" fill="#73AE43"/>
<path d="M21.8172 9.85121C21.8976 9.78841 22.0073 9.78061 22.1093 9.78311C22.2178 9.78571 22.3307 9.79861 22.422 9.85721C22.4511 9.87591 22.4777 9.89931 22.496 9.92861C22.5295 9.98241 22.5315 10.0496 22.5277 10.1128C22.518 10.2718 22.4773 10.4288 22.4085 10.5724C22.3662 10.6608 22.3373 10.6778 22.2524 10.7018C22.1787 10.7227 22.1032 10.7438 22.0267 10.7387C21.708 10.7177 21.5897 10.029 21.8172 9.85121Z" fill="#A9C838"/>
<path d="M22.3752 13.2335C22.3752 13.2335 22.8253 13.2257 22.9654 13.1479C23.1055 13.0701 24.1484 13.7394 24.2263 13.864C24.3042 13.9886 24.2286 14.2232 24.2286 14.2232C23.292 13.9331 22.9836 13.5638 22.514 13.3503C22.4284 13.3114 22.2961 13.2958 22.2727 13.2958C22.2493 13.2957 22.3752 13.2335 22.3752 13.2335Z" fill="#589441"/>
<path d="M42.3988 19.7129C42.2524 21.28 43.1153 25.6673 40.2675 29.7882C39.263 31.2728 37.7207 32.6541 35.5794 33.656C29.2971 36.6117 22.7027 35.0958 16.1103 33.0518C14.3451 32.5097 10.9007 31.5071 10.8894 29.6416L10.9002 25.8233C10.9116 27.6877 14.3596 28.6925 16.1211 29.2335C22.7317 31.2832 29.3157 32.7897 35.5902 29.8377C39.3078 28.0983 41.2874 25.3357 42.1751 21.3337C42.2993 20.7966 42.3973 20.2524 42.3988 19.7129Z" fill="#CF2027"/>
<path d="M39.7417 15.8861C41.1161 16.6796 42.0425 17.7458 42.3049 18.8646C42.4881 19.6763 42.3594 20.5133 42.1697 21.3338C41.2822 25.3352 39.3083 28.0957 35.5848 29.8378C29.3025 32.7935 22.7081 31.2776 16.1157 29.2336C14.3513 28.6918 10.9061 27.6887 10.8948 25.8234C10.8846 23.7102 14.8776 23.014 17.2435 23.0694C18.4664 23.0863 19.7485 23.242 20.8949 22.9916C22.9347 22.5511 23.9107 21.1351 24.9329 20.1426C25.5413 19.5638 26.2535 19.0114 26.6971 18.3898C27.3628 17.5005 27.4614 16.5425 28.6647 15.8085C31.2573 14.2393 36.3736 13.9415 39.7417 15.8861Z" fill="#E02426"/>
<path d="M16.4675 28.1152C13.2613 27.1297 10.3117 25.988 13.4404 24.7836C17.8856 23.034 20.6395 26.3689 25.2229 21.5295C25.4024 21.3394 25.5774 21.1541 25.7535 20.9829C29.0719 17.9063 28.0187 17.5779 29.2792 16.8085C32.872 14.6352 40.3925 15.8235 41.1703 19.1326C41.3064 19.7341 41.1783 20.4503 41.0342 21.0701C40.6385 22.8518 40.109 24.1547 39.3154 25.3045C38.3433 26.7411 36.8864 27.9388 35.0944 28.7773C29.1083 31.592 22.7028 30.048 16.4675 28.1152Z" fill="#EE4541"/>
<g opacity="0.54">
<path opacity="0.54" d="M35.7103 24.4054L35.6495 24.4133C35.0227 24.5008 34.4653 24.7061 34.0259 24.9924C31.5653 26.5984 27.2779 26.0334 26.4601 24.1581C25.6451 22.2957 28.1628 21.6875 29.502 19.9625C30.3482 18.8736 31.0331 17.1276 33.253 16.9496C41.1501 16.3186 41.0124 23.647 35.7103 24.4054Z" fill="#F7E28E"/>
<path opacity="0.54" d="M30.4924 25.1603C28.0563 25.1603 25.8876 23.796 27.8874 22.4029C28.6517 21.8669 29.5123 21.2155 30.1158 20.4387C31.3532 18.8457 31.5222 17.6958 34.0142 17.6958C40.3514 17.6958 39.6428 23.0581 35.6004 23.6362C33.3655 23.9464 33.3378 25.1603 30.4924 25.1603Z" fill="#EFD874"/>
</g>
</svg>
