<svg width="25" height="25" viewBox="0 0 25 25" fill="none" xmlns="http://www.w3.org/2000/svg">
<path d="M11.1963 4H4.80371C4.60481 4.00005 4.41408 4.07909 4.27344 4.21973C4.1328 4.36037 4.05376 4.5511 4.05371 4.75V11.25C4.05376 11.4489 4.1328 11.6396 4.27344 11.7803C4.41408 11.9209 4.60481 11.9999 4.80371 12H11.1963C11.3952 11.9999 11.5859 11.9209 11.7266 11.7803C11.8672 11.6396 11.9462 11.4489 11.9463 11.25V4.75C11.9462 4.5511 11.8672 4.36037 11.7266 4.21973C11.5859 4.07909 11.3952 4.00005 11.1963 4V4ZM10.4463 10.5H5.55371V5.5H10.4463V10.5ZM9 7H7V9H9V7ZM1 10C1.13133 10 1.26138 9.97419 1.38272 9.92395C1.50406 9.87371 1.61432 9.80005 1.70718 9.70718C1.80005 9.61432 1.87371 9.50406 1.92395 9.38272C1.97419 9.26138 2.00003 9.13133 2 9V3C2.00026 2.73486 2.10571 2.48066 2.29319 2.29319C2.48066 2.10571 2.73486 2.00026 3 2H9C9.26522 2 9.51957 1.89464 9.70711 1.70711C9.89464 1.51957 10 1.26522 10 1C10 0.734784 9.89464 0.48043 9.70711 0.292893C9.51957 0.105357 9.26522 0 9 0H3C2.20462 0.000868196 1.44206 0.317218 0.879639 0.879639C0.317218 1.44206 0.000868229 2.20462 3.38206e-08 3V9C-3.41257e-05 9.13133 0.0258084 9.26138 0.076051 9.38272C0.126294 9.50406 0.199952 9.61432 0.292817 9.70718C0.385683 9.80005 0.495935 9.87371 0.617276 9.92395C0.738617 9.97419 0.868669 10 1 10V10ZM11.1963 13H4.80371C4.60481 13.0001 4.41408 13.0791 4.27344 13.2197C4.1328 13.3604 4.05376 13.5511 4.05371 13.75V20.25C4.05376 20.4489 4.1328 20.6396 4.27344 20.7803C4.41408 20.9209 4.60481 20.9999 4.80371 21H11.1963C11.3952 20.9999 11.5859 20.9209 11.7266 20.7803C11.8672 20.6396 11.9462 20.4489 11.9463 20.25V13.75C11.9462 13.5511 11.8672 13.3604 11.7266 13.2197C11.5859 13.0791 11.3952 13.0001 11.1963 13V13ZM10.4463 19.5H5.55371V14.5H10.4463V19.5ZM9 16H7V18H9V16ZM9 23H3C2.73486 22.9997 2.48066 22.8943 2.29319 22.7068C2.10571 22.5193 2.00026 22.2651 2 22V16C2 15.7348 1.89464 15.4804 1.70711 15.2929C1.51957 15.1054 1.26522 15 1 15C0.734784 15 0.48043 15.1054 0.292893 15.2929C0.105357 15.4804 3.38206e-08 15.7348 3.38206e-08 16V22C0.000868229 22.7954 0.317218 23.5579 0.879639 24.1204C1.44206 24.6828 2.20462 24.9991 3 25H9C9.26522 25 9.51957 24.8946 9.70711 24.7071C9.89464 24.5196 10 24.2652 10 24C10 23.7348 9.89464 23.4804 9.70711 23.2929C9.51957 23.1054 9.26522 23 9 23ZM24 15C23.8687 15 23.7386 15.0258 23.6173 15.0761C23.4959 15.1263 23.3857 15.2 23.2928 15.2928C23.2 15.3857 23.1263 15.4959 23.0761 15.6173C23.0258 15.7386 23 15.8687 23 16V22C22.9997 22.2651 22.8943 22.5193 22.7068 22.7068C22.5193 22.8943 22.2651 22.9997 22 23H16C15.7348 23 15.4804 23.1054 15.2929 23.2929C15.1054 23.4804 15 23.7348 15 24C15 24.2652 15.1054 24.5196 15.2929 24.7071C15.4804 24.8946 15.7348 25 16 25H22C22.7954 24.9991 23.5579 24.6828 24.1204 24.1204C24.6828 23.5579 24.9991 22.7954 25 22V16C25 15.8687 24.9742 15.7386 24.9239 15.6173C24.8737 15.4959 24.8 15.3857 24.7072 15.2928C24.6143 15.2 24.5041 15.1263 24.3827 15.0761C24.2614 15.0258 24.1313 15 24 15V15ZM15.5 18.5H13.5V20.5H15.5V18.5ZM13.5 15.4944H15.5V13.4944H13.5V15.4944ZM22 0H16C15.7348 0 15.4804 0.105357 15.2929 0.292893C15.1054 0.48043 15 0.734784 15 1C15 1.26522 15.1054 1.51957 15.2929 1.70711C15.4804 1.89464 15.7348 2 16 2H22C22.2651 2.00026 22.5193 2.10571 22.7068 2.29319C22.8943 2.48066 22.9997 2.73486 23 3V9C23 9.26522 23.1054 9.51957 23.2929 9.70711C23.4804 9.89464 23.7348 10 24 10C24.2652 10 24.5196 9.89464 24.7071 9.70711C24.8946 9.51957 25 9.26522 25 9V3C24.9991 2.20462 24.6828 1.44206 24.1204 0.879639C23.5579 0.317218 22.7954 0.000868196 22 0V0ZM16 9H18V7H16V9ZM18 18V16H16V18H18ZM20.1963 12C20.3952 11.9999 20.5859 11.9209 20.7266 11.7803C20.8672 11.6396 20.9462 11.4489 20.9463 11.25V4.75C20.9462 4.5511 20.8672 4.36037 20.7266 4.21973C20.5859 4.07909 20.3952 4.00005 20.1963 4H13.8037C13.6048 4.00005 13.4141 4.07909 13.2734 4.21973C13.1328 4.36037 13.0538 4.5511 13.0537 4.75V11.25C13.0538 11.4489 13.1328 11.6396 13.2734 11.7803C13.4141 11.9209 13.6048 11.9999 13.8037 12H20.1963ZM14.5537 5.5H19.4463V10.5H14.5537V5.5ZM20.5 13.4944H18.5V15.4944H20.5V13.4944ZM18.5 20.5H20.5V18.5H18.5V20.5Z" fill="black"/>
</svg>
